<svg xmlns="http://www.w3.org/2000/svg" viewBox="0 0 24 24" class="v-icon"><path d="M16.852 3.539c4.651 2.388 6.486 8.125 4.107 12.794-2.379 4.668-8.083 6.51-12.746 4.122a9.423 9.423 0 0 1-4.568-5.227l1.94-1.223a7.27 7.27 0 0 0 3.646 4.466c3.562 1.83 7.917.416 9.74-3.16a7.276 7.276 0 0 0-3.136-9.788c-3.563-1.83-7.918-.416-9.74 3.16L8.32 9.835l-5.858 3.659L2 6.58l2.107 1.081c2.39-4.692 8.13-6.486 12.745-4.122zm-5.16 9.301a1.186 1.186 0 0 1-.343-.843c0-.083.036-.143.048-.226h-.012l1.148-5.714 1.148 5.714 3.585 3.79-5.325-2.519.024-.023a1.343 1.343 0 0 1-.273-.179z"/></svg>