<svg xmlns="http://www.w3.org/2000/svg" viewBox="0 0 32 32" class="v-icon"><path d="M11 22.5v1q0 .203-.149.352-.149.149-.352.149h-1q-.203 0-.352-.149Q9 23.703 9 23.5v-1q0-.203.148-.351.15-.15.352-.15h1q.203 0 .352.15.149.148.149.351zm0-4v1q0 .203-.149.352-.149.148-.352.148h-1q-.203 0-.352-.148Q9 19.703 9 19.5v-1q0-.203.148-.352Q9.297 18 9.5 18h1q.203 0 .352.15.149.148.149.35zm4 0v1q0 .203-.148.352-.15.148-.352.148h-1q-.203 0-.352-.148-.149-.149-.149-.352v-1q0-.203.149-.352.149-.149.352-.149h1q.203 0 .352.15.148.148.148.35zm-4-4v1q0 .203-.149.352-.149.149-.352.149h-1q-.203 0-.352-.149Q9 15.703 9 15.5v-1q0-.203.148-.351.15-.15.352-.15h1q.203 0 .352.15.149.148.149.351zm12 8v1q0 .203-.15.352-.148.149-.35.149h-1.001q-.203 0-.352-.149-.149-.149-.149-.352v-1q0-.203.15-.351.148-.15.351-.15h1q.203 0 .352.15.149.148.149.351zm-4-4v1q0 .203-.149.352-.149.148-.352.148h-1q-.203 0-.351-.148-.15-.149-.15-.352v-1q0-.203.15-.352.148-.149.351-.149h1q.203 0 .352.15.149.148.149.35zm-4-4v1q0 .203-.148.352-.15.149-.352.149h-1q-.203 0-.352-.149-.149-.149-.149-.352v-1q0-.203.149-.351.149-.15.352-.15h1q.203 0 .352.15.148.148.148.351zm-4-4v1q0 .203-.149.352-.149.148-.352.148h-1q-.203 0-.352-.148Q9 11.702 9 11.5v-1q0-.203.148-.352.15-.149.352-.149h1q.203 0 .352.149.149.149.149.352zm12 8v1q0 .203-.15.352-.148.148-.35.148h-1.001q-.203 0-.352-.148-.149-.149-.149-.352v-1q0-.203.15-.352.148-.149.351-.149h1q.203 0 .352.15.149.148.149.35zm-4-4v1q0 .203-.149.352-.149.149-.352.149h-1q-.203 0-.351-.149-.15-.149-.15-.352v-1q0-.203.15-.351.148-.15.351-.15h1q.203 0 .352.15.149.148.149.351zm-4-4v1q0 .203-.148.352-.15.148-.352.148h-1q-.203 0-.352-.148-.149-.15-.149-.352v-1q0-.203.149-.352.149-.149.352-.149h1q.203 0 .352.149.148.149.148.352zm-4-4v1q0 .203-.149.352-.149.149-.352.149h-1q-.203 0-.352-.149Q9 7.703 9 7.5v-1q0-.203.148-.352Q9.297 6 9.5 6h1q.203 0 .352.148.149.15.149.352zm12 8v1q0 .203-.15.352-.148.149-.35.149h-1.001q-.203 0-.352-.149-.149-.149-.149-.352v-1q0-.203.15-.351.148-.15.351-.15h1q.203 0 .352.15.149.148.149.351zm-4-4v1q0 .203-.149.352-.149.148-.352.148h-1q-.203 0-.351-.148-.15-.15-.15-.352v-1q0-.203.15-.352.148-.149.351-.149h1q.203 0 .352.149.149.149.149.352zm-4-4v1q0 .203-.148.352-.15.149-.352.149h-1q-.203 0-.352-.149-.149-.149-.149-.352v-1q0-.203.149-.352Q13.297 6 13.5 6h1q.203 0 .352.148.148.15.148.352zm8 4v1q0 .203-.15.352-.148.148-.35.148h-1.001q-.203 0-.352-.148-.149-.15-.149-.352v-1q0-.203.15-.352.148-.149.351-.149h1q.203 0 .352.149.149.149.149.352zm-4-4v1q0 .203-.149.352-.149.149-.352.149h-1q-.203 0-.351-.149-.15-.149-.15-.352v-1q0-.203.15-.352.148-.148.351-.148h1q.203 0 .352.148.149.15.149.352zm4 0v1q0 .203-.15.352-.148.149-.35.149h-1.001q-.203 0-.352-.149-.149-.149-.149-.352v-1q0-.203.15-.352.148-.148.351-.148h1q.203 0 .352.148.149.15.149.352zM19 28h6V4H7v24h6v-3.5q0-.203.149-.352.149-.149.352-.149h5q.202 0 .351.149.149.149.149.352V28zm8-25v26q0 .406-.297.703-.296.298-.703.297H6q-.406 0-.703-.297Q5 29.407 5 29V3q0-.406.297-.703Q5.593 1.999 6 2h20q.406 0 .703.297.298.296.297.703z"/></svg>