<svg xmlns="http://www.w3.org/2000/svg" viewBox="0 0 28 28" class="v-icon"><path d="M4.27 24.714h19.46V10.43H4.27v14.285zM9.576 7.75V3.732q0-.195-.125-.32t-.317-.126H8.25q-.194 0-.318.126-.123.126-.124.32V7.75q0 .196.124.32.125.126.318.126h.885q.193 0 .317-.125.124-.126.125-.321zm10.615 0V3.732q0-.195-.124-.32-.125-.125-.318-.126h-.885q-.193 0-.317.126t-.125.32V7.75q0 .196.125.32.125.126.317.126h.885q.194 0 .318-.125.123-.126.124-.321zm5.308-.893v17.857q0 .725-.525 1.256-.526.53-1.244.53H4.269q-.718 0-1.244-.53-.525-.53-.525-1.256V6.857q0-.725.525-1.255.526-.53 1.244-.53h1.77v-1.34q0-.92.649-1.577.65-.656 1.562-.655h.885q.912 0 1.562.655.65.656.65 1.577v1.34h5.307v-1.34q0-.92.65-1.577.648-.656 1.561-.655h.885q.912 0 1.562.655.65.656.65 1.577v1.34h1.769q.718 0 1.244.53.525.53.525 1.255z"/></svg>