<svg xmlns="http://www.w3.org/2000/svg" fill="currentcolor" class="tile-icon" viewBox="0 0 42 42"><path d="m 29.599951,35.453482 c 0,0 0,-5.979443 0,-10.059362 0,-4.081367 -1.210807,-5.697119 -1.210807,-5.697119 l -6.046832,-8.445056 c 0,0.09266 0,0.590705 0,2.779789 0,0 -0.0029,0.425655 0.142703,0.571884 l 4.103773,5.979441 c 0,0 1.324682,1.612856 1.324682,5.695671 l -0.05478,7.941222 c 0,5.12523 -1.891166,4.79948 -1.891166,4.79948 l -3.15819,-0.003 -0.0014,1.96902 c 0.95135,-0.0348 2.558552,-0.1361 4.164314,-0.34748 2.577291,-0.34023 2.433147,-3.42985 2.627741,-5.18459 M 21.540873,6.9273467 c 3.426298,0.05502 5.713859,0.456059 5.713859,0.456059 l 0,-1.921239 c -2.025219,0.2968 -3.959629,0.424207 -5.686471,0.454611 0.138378,-4.91096 0.337296,-4.916751 0.337296,-4.916751 l -2.157832,0 c 0,0 0.197477,0.0058 0.337296,4.919647 -3.511342,-0.04633 -5.870976,-0.457507 -5.870976,-0.457507 l 0,1.921239 c 2.110265,-0.30983 4.116747,-0.43579 5.896922,-0.458955 0.06342,2.6769954 0.10955,6.5614603 0.10955,12.2035623 0,16.267559 0.09369,21.314609 -0.951349,21.853189 0,0 1.027745,0.0188 1.561077,0.0188 0.533332,0 1.491888,-0.0217 1.491888,-0.0217 -0.949908,-0.70653 -0.889367,-6.20096 -0.889367,-21.850299 0,-5.640654 0.04613,-9.5251189 0.108107,-12.2006663 M 18.76034,39.061412 c -1.288645,0.15057 -3.12792,-0.042 -3.12792,-0.042 0,0 -1.891166,0.32575 -1.891166,-4.79948 l -0.05333,-7.941222 c 0,-4.082815 1.321798,-5.695671 1.321798,-5.695671 l 4.106656,-5.979421 c 0.142703,-0.146229 0.142703,-0.571884 0.142703,-0.571884 0,-2.189084 0,-2.687129 0,-2.779789 l -6.048273,8.445056 c 0,0 -1.210808,1.615752 -1.210808,5.697119 0,4.079919 0,10.059362 0,10.059362 0.259459,2.3411 0.108108,4.85305 2.629183,5.18459 1.595672,0.21138 3.185577,0.30839 4.128277,0.34313 l 0.0029,-1.91979"/></svg>
