<svg xmlns="http://www.w3.org/2000/svg" viewBox="0 0 28 28" class="v-icon"><path d="M22.562 7.503L18 12.02v12.747q0 .712-.516 1.222t-1.234.511q-.718.001-1.234-.51-.516-.513-.516-1.223v-5.94h-1v5.94q0 .712-.516 1.222t-1.234.511q-.718.001-1.234-.51Q10 25.476 10 24.766V12.02L5.438 7.503Q5 7.069 5 6.451q0-.617.438-1.051.438-.434 1.062-.434.624 0 1.062.434l3.563 3.528h5.75L20.438 5.4q.438-.434 1.062-.434.624 0 1.062.434.438.434.438 1.051 0 .618-.438 1.052zM17.5 4.965q0 1.439-1.023 2.453Q15.454 8.432 14 8.43q-1.454-.001-2.477-1.013T10.5 4.965q0-1.44 1.023-2.452T14 1.5q1.454-.001 2.477 1.013Q17.5 3.527 17.5 4.965z"/></svg>