<svg xmlns="http://www.w3.org/2000/svg" viewBox="0 0 24 24" class="v-icon"><path d="M12 9q1.217 0 2.106.89.889.891.89 2.109 0 1.218-.89 2.109-.89.89-2.106.89-1.215 0-2.106-.89-.89-.891-.89-2.109.001-1.218.89-2.109Q10.783 9 12 9zm0 8.014q2.06 0 3.534-1.476 1.474-1.477 1.475-3.539 0-2.062-1.475-3.539Q14.058 6.984 12 6.984T8.466 8.46Q6.99 9.937 6.991 12q.001 2.062 1.475 3.539Q9.94 17.014 12 17.014zM12 4.5q3.698 0 6.693 2.063Q21.69 8.625 23 12q-1.311 3.375-4.307 5.437Q15.698 19.5 12 19.5q-3.698 0-6.693-2.063Q2.31 15.375 1 12q1.311-3.375 4.307-5.437Q8.302 4.5 12 4.5z"/></svg>