<svg xmlns="http://www.w3.org/2000/svg" viewBox="0 0 32 32" class="v-icon"><path d="M30 17.79q0 .461-.462.983l-5.007 5.907q-.64.76-1.795 1.29-1.155.53-2.139.53H4.384q-.506 0-.901-.194t-.395-.641q0-.462.462-.984l5.007-5.907q.64-.76 1.796-1.29 1.155-.53 2.138-.53h16.213q.506 0 .901.194t.395.641zm-5.11-5.131v2.386h-12.4q-1.4 0-2.935.708-1.534.709-2.443 1.782L2 23.531V8.841q0-1.372.983-2.357.984-.985 2.355-.984h4.769q1.37 0 2.354.984t.984 2.357v.477h8.106q1.37 0 2.355.984.984.984.983 2.357z"/></svg>