<svg xmlns="http://www.w3.org/2000/svg" viewBox="0 0 32 32" class="v-icon"><path d="M27.812 20.375h-2.354a9.583 9.583 0 0 0-.14-.618l4.199-2.099a.876.876 0 0 0-.783-1.565l-4.006 2.002C23.2 14.798 19.868 12.5 16 12.5c-4.71 0-8.632 3.402-9.458 7.875H4.187A2.19 2.19 0 0 0 2 22.563c0 .428.157.842.442 1.162l3.058 3.44v.648A2.19 2.19 0 0 0 7.687 30h16.625a2.19 2.19 0 0 0 2.188-2.187v-.647l3.057-3.44c.285-.32.443-.735.443-1.163a2.19 2.19 0 0 0-2.188-2.188zm-3.238 0h-.492l.436-.219c.016.074.04.145.056.22zm-8.574-7c3.525 0 6.562 2.1 7.946 5.111l-.78.39A7.871 7.871 0 0 0 16 14.25c-3.747 0-6.877 2.619-7.674 6.125h-.9c.814-3.989 4.349-7 8.574-7zm4.004 7A4.376 4.376 0 0 0 16 17.75a4.377 4.377 0 0 0-4.004 2.625h-.94a5.254 5.254 0 0 1 4.944-3.5 5.255 5.255 0 0 1 4.82 3.174l-.816.326zM16 19.5c-.773 0-1.461.342-1.943.875h-1.07A3.49 3.49 0 0 1 16 18.625c1.289 0 2.406.71 3.012 1.75h-1.071A2.605 2.605 0 0 0 16 19.5zm0-3.5c-2.77 0-5.112 1.848-5.867 4.375H9.23c.78-3.013 3.515-5.25 6.77-5.25 2.84 0 5.287 1.705 6.383 4.142l-.781.39C20.65 17.508 18.498 16 16 16zm8.75 10.5v1.313a.438.438 0 0 1-.438.437H7.687a.438.438 0 0 1-.437-.437V26.5l-3.5-3.937c0-.242.196-.438.437-.438h23.625c.24 0 .438.196.438.438l-3.5 3.937zM8.98 12.248l-.016-.037c-.454-1.096-.003-2.171.405-3.142.386-.92.728-1.736.375-2.531l-.005-.01-.002-.008-.001-.006a.429.429 0 0 1 .8-.303c.488 1.113.044 2.207-.37 3.192-.383.912-.694 1.758-.366 2.53a.03.03 0 0 1 0 .018.44.44 0 0 1-.423.55.436.436 0 0 1-.388-.237h-.002l-.007-.016zm10.655-.128c-.006-.01-.01-.023-.014-.035-.455-1.096-.004-2.172.403-3.142.387-.921.728-1.736.374-2.532 0-.003-.001-.007-.003-.01l-.004-.008v-.005a.436.436 0 0 1-.028-.148.43.43 0 0 1 .828-.155c.488 1.112.045 2.206-.37 3.19-.382.913-.693 1.76-.367 2.531a.02.02 0 0 1 .002.018.45.45 0 0 1 .016.11.438.438 0 1 1-.829.203h-.002c-.001-.006-.003-.011-.007-.017zM15.14 8.31l-.016-.035c-.455-1.096-.004-2.173.404-3.143.386-.92.728-1.736.375-2.531l-.004-.01c0-.004-.002-.006-.003-.009v-.005a.43.43 0 0 1 .8-.302c.488 1.112.045 2.206-.369 3.191-.383.912-.695 1.759-.367 2.53a.03.03 0 0 1 0 .018.44.44 0 0 1-.423.55.438.438 0 0 1-.388-.237h-.001l-.007-.016z"/></svg>