<svg xmlns="http://www.w3.org/2000/svg" viewBox="0 0 32 32" class="v-icon"><path d="M17 30h10v-9.978H17V30zM5 30h10v-9.978H5V30zm11.992-18.204c.983-.109 2.09-.23 2.73-.303 2.621-.292 4.98-2.646 5.271-5.26.291-2.612-1.594-4.495-4.209-4.201-2.045.228-3.915 1.714-4.785 3.596-.87-1.883-2.74-3.369-4.784-3.598-2.616-.292-4.504 1.591-4.21 4.202.292 2.615 2.652 4.968 5.271 5.26.642.073 1.748.196 2.731.304-.016.132-.008.244-.008.244h2s.008-.112-.008-.244zm3.363-7.344c1.414-.157 2.438.86 2.277 2.272-.156 1.413-1.434 2.686-2.848 2.845-1.418.157-2.438-.86-2.279-2.273.159-1.413 1.436-2.686 2.85-2.844zM12.216 9.57c-1.414-.158-2.689-1.432-2.848-2.845-.159-1.413.862-2.43 2.275-2.272 1.416.157 2.692 1.431 2.851 2.844.159 1.413-.862 2.43-2.278 2.273zM17 12.04v5.987h12V12.04H17zM3 18.027h12V12.04H3v5.986z"/></svg>