<svg xmlns="http://www.w3.org/2000/svg" viewBox="0 0 32 32" class="v-icon"><path d="M8.734 30s2.316-8.422 2.29-9.7c-.648-2.772-2.694-2.255-5.76-5.67-1.3-1.28-2.557-5.339-2.204-5.328.282-.925 1.752 3.015 1.758 1.1 0-.353.04-1.857.052-2.73.563-.845.995.542 1.15.75.297-.462.694.277.9.89 1.52.146.198 4.203 1.786 4.564-.089-.435-.163-2.458-.133-2.834.044-1.074 1.026-.935 1.373 1.961.193 1.4 1.571 1.714 2.188 2.005.94.444 1.981 1.823 2.324 3.347.342 1.52-.204 11.644-.204 11.644H8.733zm14.208 0s-2.316-8.422-2.29-9.7c.646-2.773 3.292-2.403 5.76-5.67 1.3-1.493 1.675-3.843 2.29-4.53.616-.687.086-.612.086-.612-.88.059-1.539 1.032-1.624 1.083-.331-.159-.18-2.626-.381-3.067-.346-.35-.745.012-1.01.92-.368-.474-.814.028-.895.889-.554-.344-.718 1.007-.688 1.476.003 1.054.166 2.555-.85 2.717.09-.435-.21-2.087-.241-2.463-.13-.653-.9-.752-.949 2.159-.194 1.4-1.995 1.516-2.61 1.807-.941.444-1.983 1.823-2.326 3.347-.343 1.52.204 11.644.204 11.644h5.522zM21.591 3.481c-.856.569-1.228 1.746-1.228 1.746.054-1.163.539-1.775.77-2.004l-1.617-.713c-.86.72-1.569 1.722-2.13 2.552.312-1.44.953-2.6 1.051-2.776A17.184 17.184 0 0 0 16.51 2c-1.017.675-1.604 1.705-2.155 2.654.074-1.122.627-2.198.873-2.628a17.01 17.01 0 0 0-2.562.317c-.544.664-1.035 1.492-1.433 2.092-.048-.664.154-1.304.3-1.668-1.287.388-3.422 1.37-3.59 3.643.005 1.395 3.078.403 9.243.725 3.001.137 6.874.573 6.535-.753-.25-1.294-1.225-2.27-2.13-2.902z"/></svg>