<svg xmlns="http://www.w3.org/2000/svg" viewBox="0 0 24 24" class="v-icon"><path d="M17.023 7q2.066 0 3.522 1.472Q22 9.945 22 12q0 2.055-1.455 3.528Q19.089 17 17.023 17h-4.037v-1.916h4.037q1.268 0 2.184-.911.915-.911.915-2.173t-.915-2.173q-.916-.911-2.184-.911h-4.037V7h4.037zM8.01 12.98v-1.962h7.982v1.963H8.009zM3.878 12q0 1.262.915 2.173.916.911 2.184.911h4.037V17H6.977q-2.066 0-3.522-1.472Q2 14.055 2 12q0-2.055 1.455-3.528Q4.911 7 6.977 7h4.037v1.916H6.977q-1.268 0-2.184.911-.915.911-.915 2.173z"/></svg>