<svg xmlns="http://www.w3.org/2000/svg" viewBox="0 0 32 12" class="v-icon"><path d="M21.038 9.005c.307 0 .556-.25.556-.556V5.713h1.095c.306 0 .555-.25.555-.56a.557.557 0 0 0-.555-.558h-1.095V3.496a.555.555 0 1 0-1.112-.01v1.099h-1.03a.555.555 0 0 0 .01 1.111h1.03v2.736c0 .304.25.553.56.553m9.84-1.781c-.32-1.431-1.739-2.117-3.15-2.507-1.426-.396-2.238-.639-2.513-1.387-.293-1.129 1.017-1.822 2.313-1.328 1.298.489 2.274 2.093 2.274 2.093l.669-.2L29.565 1s-.269.35-.783.475c-.513.125-1.025-.315-2.426-.3-1.399.015-2.837 1.137-2.7 2.882.131 1.745 1.938 2.66 3.363 2.956 1.429.295 2.338.779 2.318 1.671-.05.945-1.309 1.83-2.777 1.239-2.128-.87-2.248-1.981-2.248-1.981h-.94s-.619 1.374-1.887 1.557c-1.259.185-3.297-.769-3.437-3.846-.143-3.08 1.05-3.982 2.478-3.649 1.438.343 2.237 2.215 2.237 2.215l.676-.206-.9-2.92s-.469.53-.888.587c-.42.06-1.191-.63-2.7-.25-1.5.38-2.55 2.207-2.55 2.207s1.538 4.713 1.815 5.612c.28.898 1.274.928 1.274.928v.57s.614.092 1.902-.163c1.289-.256 2.188-1.67 2.188-1.67L24.306 11s.82-.462 1.164-.462 1.898.689 3.403.233c1.499-.451 2.378-1.952 2.063-3.387m-15.504-.479l-1.339-3.954s-.9 2.302-1.558 3.947zm.18.544h-3.277c-.15.38-.28.696-.37.889-.442 1.018.04 1.723.7 1.697l-.03.66h2.577v-.62s1.299.102 1.002-.828c-.09-.284-.316-.973-.59-1.796m.08-5.84h-3.016v.548c-1.262.07-1.438.48-1.438 1.252l-.002 5.148 2.577-6.31zm-6.813.004H4.696L6.747 7.17zm-.918 9.071l-.03-.602s1.209.04 1.209-.918V2.698l-2.917 7.978zM2.958 8.78c0 .775.233 1.224 1.152 1.288v.636h1.738L2.96 2.995zM1 2.14v7.892c.9-.07 1.239-.547 1.239-1.447V2.978C2.239 1.983 1 2.129 1 2.129"/></svg>