<svg xmlns="http://www.w3.org/2000/svg" fill="currentcolor" class="tile-icon v-icon" viewBox="0 0 48 48"><path d="M47.01 44.23H.99a.99.99 0 1 1 0-1.98h46.02a.99.99 0 1 1 0 1.98zm0 3.77H.99a.99.99 0 1 1 0-1.98h46.02a.99.99 0 1 1 0 1.98zm0-25.753H34.996V15.56h.815a.99.99 0 0 0 .31-1.936L24.41 8.296a.994.994 0 0 0-.82 0L11.78 13.67a.99.99 0 0 0 .409 1.89h.815v6.687H.99a.99.99 0 0 0-.99.99v16.606c0 .547.443.99.99.99h18.278V30.53c0-.58.443-1.048.99-1.048h7.484c.547 0 .99.47.99 1.048v10.302H47.01a.99.99 0 0 0 .99-.99V23.237a.99.99 0 0 0-.99-.99zM6.518 37.02a.99.99 0 1 1-1.98 0v-2.81a.99.99 0 1 1 1.98 0v2.81zm0-6.584a.99.99 0 1 1-1.98 0v-2.812a.99.99 0 1 1 1.98 0v2.812zm4.334 6.585c0 .548-.442.99-.99.99s-.99-.442-.99-.99v-2.81a.99.99 0 1 1 1.98 0v2.81zm0-6.584c0 .548-.442.99-.99.99s-.99-.442-.99-.99v-2.812a.99.99 0 1 1 1.98 0v2.812zm4.334 6.585a.99.99 0 1 1-1.98 0v-2.81a.99.99 0 1 1 1.98 0v2.81zm0-6.584a.99.99 0 1 1-1.98 0v-2.812a.99.99 0 1 1 1.98 0v2.812zm5.472-5.402a.99.99 0 1 1-1.98 0v-2.81a.99.99 0 1 1 1.98 0v2.81zm0-6.584a.99.99 0 1 1-1.98 0v-2.813a.99.99 0 1 1 1.98 0v2.813zm4.334 6.584a.99.99 0 1 1-1.98 0v-2.81a.99.99 0 1 1 1.98 0v2.81zm0-6.584a.99.99 0 1 1-1.98 0v-2.813a.99.99 0 1 1 1.98 0v2.813zm4.333 6.584a.99.99 0 1 1-1.98 0v-2.81a.99.99 0 1 1 1.98 0v2.81zm0-6.584a.99.99 0 1 1-1.98 0v-2.813a.99.99 0 0 1 1.98 0v2.813zm5.472 18.57a.99.99 0 1 1-1.98 0v-2.81a.99.99 0 1 1 1.98 0v2.81zm0-6.584a.99.99 0 1 1-1.98 0v-2.812a.99.99 0 1 1 1.98 0v2.812zm4.333 6.585a.99.99 0 1 1-1.98 0v-2.81a.99.99 0 1 1 1.98 0v2.81zm0-6.584a.99.99 0 1 1-1.98 0v-2.812a.99.99 0 1 1 1.98 0v2.812zm4.333 6.585a.988.988 0 1 1-1.978 0v-2.81a.99.99 0 1 1 1.98 0v2.81zm0-6.584a.988.988 0 1 1-1.978 0v-2.812a.99.99 0 1 1 1.98 0v2.812z"/><path d="M24 10.187a.99.99 0 0 1-.99-.99V.99a.99.99 0 1 1 1.98 0v8.208a.99.99 0 0 1-.99.99z"/><path d="M23.217 4.366V2.75c.597 0 1.08-.393 1.08-.88 0-.486-.482-.88-1.08-.88H17.81c-.598 0-1.08.394-1.08.88v3.377c0 .486.48.88 1.08.88h5.408c.597 0 1.08-.394 1.08-.88 0-.488-.484-.88-1.08-.88z"/></svg>