<svg xmlns="http://www.w3.org/2000/svg" fill="currentcolor" viewBox="0 0 32 32" class="shield-icon v-icon"><path d="M14 3.828l.88 4.189c1.542.178-.167 1.987-.48.478l-4-.799v3.99l4-.798c.283-1.424 1.842.225.52.479l-1 5.786h4l-1-5.786c-1.336-.39.322-1.815.52-.478l4 .798V7.696l-4 .798c-.476 1.543-1.992-.496-.48-.499l.8-4.19z" class="shield-cross"/><path d="M3 1.572V15.54S3.82 27.111 16 31.5c12.2-4.39 13-15.96 13-15.96V1.571C20.116.168 11.029.307 3 1.572zm24 1.856v11.97c-1.23 7.288-4.521 11.135-11 14.166-5.837-3.078-9.207-6.02-11-13.966V3.628c7.44-1.506 14.993-1.376 22-.2z" class="shield-shield"/><path d="M16.094 17.924c-.25.679-1.254.866-.914 2.264-1.28-.03-1.034 2.08.4 1.629-.009.958-.84 1.717-1.84.24 1.073-1.998-2.437-1.744-1.019.102-1.356 1.919-1.293-.192-1.405-.92-.984.75-1.655-.762-2.396-.705.5.659 1.52 1.655 3 5.187h8.4c1.379-3.59 2.4-4.588 3-5.187-1.202.03-1.225 1.4-2.486.527.227 1.282-.489 2.756-1.315 1.097 1.446-1.748-2.084-2.163-1.021-.1-.94 1.417-1.84.719-1.84-.24 1.445.395 1.512-1.607.403-1.629.324-1.264-.715-1.588-.967-2.265z" class="shield-crown"/></svg>