<svg xmlns="http://www.w3.org/2000/svg" width="24" height="24" viewBox="0 0 24 24">
    <path d="M12 19.229q3.803 0 6.009-3.239-.047-1.315-2.112-2.206-2.065-.892-3.897-.893-1.832 0-3.897.869-2.065.869-2.112 2.23Q8.197 19.229 12 19.229zm0-14.224q-1.22 0-2.112.892-.892.892-.893 2.112 0 1.22.893 2.112.893.893 2.112.893t2.112-.893q.894-.892.893-2.112-.001-1.22-.893-2.112-.891-.892-2.112-.892zM12 2q4.131 0 7.066 2.934Q22 7.87 22 12t-2.934 7.066Q16.13 22 12 22t-7.066-2.934Q2 16.13 2 12t2.934-7.066Q7.87 2 12 2z" fill="#444"/>
</svg>
