<?xml version="1.0" encoding="UTF-8" standalone="no"?>
<!-- Generated by IcoMoon.io -->

<svg
   xmlns:dc="http://purl.org/dc/elements/1.1/"
   xmlns:cc="http://creativecommons.org/ns#"
   xmlns:rdf="http://www.w3.org/1999/02/22-rdf-syntax-ns#"
   xmlns:svg="http://www.w3.org/2000/svg"
   xmlns="http://www.w3.org/2000/svg"
   xmlns:sodipodi="http://sodipodi.sourceforge.net/DTD/sodipodi-0.dtd"
   xmlns:inkscape="http://www.inkscape.org/namespaces/inkscape"
   version="1.1"
   width="24"
   height="24"
   viewBox="0 0 24 24"
   id="svg2"
   inkscape:version="0.91 r13725"
   sodipodi:docname="backup.svg">
  <metadata
     id="metadata10">
    <rdf:RDF>
      <cc:Work
         rdf:about="">
        <dc:format>image/svg+xml</dc:format>
        <dc:type
           rdf:resource="http://purl.org/dc/dcmitype/StillImage" />
        <dc:title></dc:title>
      </cc:Work>
    </rdf:RDF>
  </metadata>
  <defs
     id="defs8" />
  <sodipodi:namedview
     pagecolor="#ffffff"
     bordercolor="#666666"
     borderopacity="1"
     objecttolerance="10"
     gridtolerance="10"
     guidetolerance="10"
     inkscape:pageopacity="0"
     inkscape:pageshadow="2"
     inkscape:window-width="1855"
     inkscape:window-height="1056"
     id="namedview6"
     showgrid="false"
     fit-margin-left="2"
     fit-margin-top="2"
     fit-margin-bottom="2"
     fit-margin-right="2"
     inkscape:zoom="11.8"
     inkscape:cx="10.9"
     inkscape:cy="9.9997508"
     inkscape:window-x="65"
     inkscape:window-y="24"
     inkscape:window-maximized="1"
     inkscape:current-layer="svg2" />
  <path
     d="m 16.852289,3.5390331 c 4.650956,2.3877075 6.485303,8.1253339 4.106569,12.7938359 -2.378733,4.668502 -8.082959,6.509769 -12.745749,4.122062 -2.2130502,-1.140398 -3.7870378,-3.04106 -4.5681145,-5.226822 l 1.940857,-1.223552 c 0.5325522,1.865026 1.798843,3.504347 3.6450239,4.466558 3.5621826,1.829388 7.9172766,0.415769 9.7397886,-3.159852 C 20.80501,11.735641 19.396705,7.3641168 15.834523,5.5228498 12.27234,3.6934619 7.9172467,5.1070798 6.0947347,8.6827012 L 8.3196194,9.8349776 2.4615453,13.493754 2,6.5800934 4.1065398,7.6610953 C 6.4971074,2.9688343 12.236836,1.1750839 16.852289,3.5390331 Z M 11.69245,12.840401 c -0.213021,-0.213824 -0.3432,-0.510803 -0.3432,-0.843419 0,-0.08316 0.0355,-0.142549 0.04734,-0.225703 l -0.01184,0 1.147945,-5.7138678 1.147947,5.7138678 3.585851,3.789446 -5.325522,-2.518378 0.02367,-0.02376 c -0.09468,-0.04752 -0.189352,-0.106912 -0.272194,-0.178187 z"
     id="path4"
     inkscape:connector-curvature="0" />
</svg>
