<svg xmlns="http://www.w3.org/2000/svg" width="28" height="28" viewBox="0 0 28 28">
    <path d="M14.304 25.607q0-.232-.233-.232-.856 0-1.472-.617-.617-.616-.617-1.472 0-.232-.232-.232t-.232.232q0 1.06.747 1.806.748.746 1.806.747.233 0 .233-.232zm11.839-4.178q0 .754-.552 1.305-.551.552-1.305.552h-6.5q0 1.537-1.089 2.626Q15.61 27 14.071 27q-1.537 0-2.626-1.088-1.088-1.089-1.088-2.626h-6.5q-.754 0-1.305-.552Q2 22.183 2 21.43q.725-.61 1.32-1.277.596-.668 1.234-1.734.637-1.066 1.08-2.3.443-1.234.726-2.989.282-1.755.283-3.772 0-2.205 1.697-4.099 1.698-1.893 4.455-2.3-.116-.275-.116-.565 0-.58.406-.986.407-.407.986-.407.58 0 .987.407.406.407.406.986 0 .29-.116.565 2.757.407 4.455 2.3 1.697 1.894 1.697 4.1 0 2.016.283 3.771t.725 2.99q.442 1.233 1.081 2.3.64 1.065 1.233 1.733.595.667 1.32 1.277z" fill="#444"/>
</svg>
