<svg xmlns="http://www.w3.org/2000/svg" width="32" height="32" viewBox="0 0 32 32">
    <path d="M21.485 8.288l-4.367 2.25a.844.844 0 0 0-.36 1.12l7.333 14.884a.809.809 0 0 0 1.095.369l4.366-2.25c.4-.206.563-.71.361-1.12L22.58 8.659a.809.809 0 0 0-1.094-.37zM15.855 7h-4.89a.827.827 0 0 0-.815.833v18.334c0 .458.366.833.815.833h4.89a.827.827 0 0 0 .814-.833V7.833A.827.827 0 0 0 15.854 7zm-.816 5h-3.26v-1.667h3.26V12zM7.705 7h-4.89A.827.827 0 0 0 2 7.833v18.334c0 .458.367.833.815.833h4.89a.827.827 0 0 0 .815-.833V7.833A.827.827 0 0 0 7.705 7zm-.815 5H3.63v-1.667h3.26V12z"/>
</svg>
