<?xml version="1.0" encoding="UTF-8" standalone="no"?>
<!-- Generated by IcoMoon.io -->

<svg
   xmlns:dc="http://purl.org/dc/elements/1.1/"
   xmlns:cc="http://creativecommons.org/ns#"
   xmlns:rdf="http://www.w3.org/1999/02/22-rdf-syntax-ns#"
   xmlns:svg="http://www.w3.org/2000/svg"
   xmlns="http://www.w3.org/2000/svg"
   xmlns:sodipodi="http://sodipodi.sourceforge.net/DTD/sodipodi-0.dtd"
   xmlns:inkscape="http://www.inkscape.org/namespaces/inkscape"
   version="1.1"
   width="32"
   height="32"
   viewBox="0 0 32 32"
   id="svg2"
   inkscape:version="0.91 r13725"
   sodipodi:docname="building-o.svg">
  <metadata
     id="metadata10">
    <rdf:RDF>
      <cc:Work
         rdf:about="">
        <dc:format>image/svg+xml</dc:format>
        <dc:type
           rdf:resource="http://purl.org/dc/dcmitype/StillImage" />
        <dc:title></dc:title>
      </cc:Work>
    </rdf:RDF>
  </metadata>
  <defs
     id="defs8" />
  <sodipodi:namedview
     pagecolor="#ffffff"
     bordercolor="#666666"
     borderopacity="1"
     objecttolerance="10"
     gridtolerance="10"
     guidetolerance="10"
     inkscape:pageopacity="0"
     inkscape:pageshadow="2"
     inkscape:window-width="640"
     inkscape:window-height="480"
     id="namedview6"
     showgrid="false"
     fit-margin-top="2"
     fit-margin-bottom="2"
     fit-margin-left="5"
     fit-margin-right="5"
     inkscape:zoom="16.484993"
     inkscape:cx="9.8787444"
     inkscape:cy="20.533914"
     inkscape:current-layer="svg2" />
  <path
     id="path4"
     d="m 10.999874,22.500374 0,1.000125 q 0,0.203 -0.14875,0.351749 -0.14875,0.14875 -0.35175,0.14875 l -1.0001252,0 q -0.203,0 -0.3517499,-0.14875 -0.14875,-0.148749 -0.14875,-0.351749 l 0,-1.000125 q 0,-0.203 0.14875,-0.35175 0.1487499,-0.14875 0.3517499,-0.14875 l 1.0001252,0 q 0.203,0 0.35175,0.14875 0.14875,0.14875 0.14875,0.35175 z m 0,-4.0005 0,1.000125 q 0,0.203 -0.14875,0.35175 -0.14875,0.14875 -0.35175,0.14875 l -1.0001252,0 q -0.203,0 -0.3517499,-0.14875 -0.14875,-0.14875 -0.14875,-0.35175 l 0,-1.000125 q 0,-0.202999 0.14875,-0.351749 0.1487499,-0.14875 0.3517499,-0.14875 l 1.0001252,0 q 0.203,0 0.35175,0.14875 0.14875,0.14875 0.14875,0.351749 z m 4.000499,0 0,1.000125 q 0,0.203 -0.14875,0.35175 -0.14875,0.14875 -0.35175,0.14875 l -1.000125,0 q -0.203,0 -0.35175,-0.14875 -0.14875,-0.14875 -0.14875,-0.35175 l 0,-1.000125 q 0,-0.202999 0.14875,-0.351749 0.14875,-0.14875 0.35175,-0.14875 l 1.000125,0 q 0.203,0 0.35175,0.14875 0.14875,0.14875 0.14875,0.351749 z m -4.000499,-3.999624 0,1.000125 q 0,0.203 -0.14875,0.35175 -0.14875,0.14875 -0.35175,0.14875 l -1.0001252,0 q -0.203,0 -0.3517499,-0.14875 -0.14875,-0.14875 -0.14875,-0.35175 l 0,-1.000125 q 0,-0.203 0.14875,-0.35175 0.1487499,-0.14875 0.3517499,-0.14875 l 1.0001252,0 q 0.203,0 0.35175,0.14875 0.14875,0.14875 0.14875,0.35175 z m 11.999747,8.000124 0,1.000125 q 0,0.203 -0.14875,0.351749 -0.14875,0.14875 -0.35175,0.14875 l -1.000124,0 q -0.203,0 -0.35175,-0.14875 -0.14875,-0.148749 -0.14875,-0.351749 l 0,-1.000125 q 0,-0.203 0.14875,-0.35175 0.14875,-0.14875 0.35175,-0.14875 l 1.000124,0 q 0.203,0 0.35175,0.14875 0.14875,0.14875 0.14875,0.35175 z m -3.999624,-4.0005 0,1.000125 q 0,0.203 -0.14875,0.35175 -0.14875,0.14875 -0.35175,0.14875 l -1.000125,0 q -0.203,0 -0.35175,-0.14875 -0.14875,-0.14875 -0.14875,-0.35175 l 0,-1.000125 q 0,-0.202999 0.14875,-0.351749 0.14875,-0.14875 0.35175,-0.14875 l 1.000125,0 q 0.203,0 0.35175,0.14875 0.14875,0.14875 0.14875,0.351749 z m -3.999624,-3.999624 0,1.000125 q 0,0.203 -0.14875,0.35175 -0.14875,0.14875 -0.35175,0.14875 l -1.000125,0 q -0.203,0 -0.35175,-0.14875 -0.14875,-0.14875 -0.14875,-0.35175 l 0,-1.000125 q 0,-0.203 0.14875,-0.35175 0.14875,-0.14875 0.35175,-0.14875 l 1.000125,0 q 0.203,0 0.35175,0.14875 0.14875,0.14875 0.14875,0.35175 z m -4.0005,-4.000499 0,1.000125 q 0,0.203 -0.148749,0.35175 -0.14875,0.14875 -0.35175,0.14875 l -1.0001252,0 q -0.203,0 -0.3517499,-0.14875 -0.14875,-0.14875 -0.14875,-0.35175 l 0,-1.000125 q 0,-0.203 0.14875,-0.35175 0.1487499,-0.1487499 0.3517499,-0.1487499 l 1.0001252,0 q 0.203,0 0.35175,0.1487499 0.148749,0.14875 0.148749,0.35175 z m 11.999748,8.000123 0,1.000125 q 0,0.203 -0.14875,0.35175 -0.14875,0.14875 -0.35175,0.14875 l -1.000124,0 q -0.203,0 -0.35175,-0.14875 -0.14875,-0.14875 -0.14875,-0.35175 l 0,-1.000125 q 0,-0.202999 0.14875,-0.351749 0.14875,-0.14875 0.35175,-0.14875 l 1.000124,0 q 0.203,0 0.35175,0.14875 0.14875,0.14875 0.14875,0.351749 z m -3.999624,-3.999624 0,1.000125 q 0,0.203 -0.14875,0.35175 -0.14875,0.14875 -0.35175,0.14875 l -1.000125,0 q -0.203,0 -0.35175,-0.14875 -0.14875,-0.14875 -0.14875,-0.35175 l 0,-1.000125 q 0,-0.203 0.14875,-0.35175 0.14875,-0.14875 0.35175,-0.14875 l 1.000125,0 q 0.203,0 0.35175,0.14875 0.14875,0.14875 0.14875,0.35175 z m -3.999624,-4.000499 0,1.000125 q 0,0.203 -0.14875,0.35175 -0.14875,0.14875 -0.35175,0.14875 l -1.000125,0 q -0.203,0 -0.35175,-0.14875 -0.14875,-0.14875 -0.14875,-0.35175 l 0,-1.000125 q 0,-0.203 0.14875,-0.35175 0.14875,-0.1487499 0.35175,-0.1487499 l 1.000125,0 q 0.203,0 0.35175,0.1487499 0.14875,0.14875 0.14875,0.35175 z m -4.0005,-3.9996242 0,1.0001248 q 0,0.203 -0.148749,0.3517499 -0.14875,0.1487496 -0.35175,0.1487496 l -1.0001252,0 q -0.203,0 -0.3517499,-0.1487496 -0.14875,-0.1487499 -0.14875,-0.3517499 l 0,-1.0001248 q 0,-0.203 0.14875,-0.35175 0.1487499,-0.1487499 0.3517499,-0.1487499 l 1.0001252,0 q 0.203,0 0.35175,0.1487499 0.148749,0.14875 0.148749,0.35175 z m 11.999748,8.0001232 0,1.000125 q 0,0.203 -0.14875,0.35175 -0.14875,0.14875 -0.35175,0.14875 l -1.000124,0 q -0.203,0 -0.35175,-0.14875 -0.14875,-0.14875 -0.14875,-0.35175 l 0,-1.000125 q 0,-0.203 0.14875,-0.35175 0.14875,-0.14875 0.35175,-0.14875 l 1.000124,0 q 0.203,0 0.35175,0.14875 0.14875,0.14875 0.14875,0.35175 z m -3.999624,-4.000499 0,1.000125 q 0,0.203 -0.14875,0.35175 -0.14875,0.14875 -0.35175,0.14875 l -1.000125,0 q -0.203,0 -0.35175,-0.14875 -0.14875,-0.14875 -0.14875,-0.35175 l 0,-1.000125 q 0,-0.203 0.14875,-0.35175 0.14875,-0.1487499 0.35175,-0.1487499 l 1.000125,0 q 0.203,0 0.35175,0.1487499 0.14875,0.14875 0.14875,0.35175 z m -3.999624,-3.9996242 0,1.0001248 q 0,0.203 -0.14875,0.3517499 -0.14875,0.1487496 -0.35175,0.1487496 l -1.000125,0 q -0.203,0 -0.35175,-0.1487496 -0.14875,-0.1487499 -0.14875,-0.3517499 l 0,-1.0001248 q 0,-0.203 0.14875,-0.35175 0.14875,-0.1487499 0.35175,-0.1487499 l 1.000125,0 q 0.203,0 0.35175,0.1487499 0.14875,0.14875 0.14875,0.35175 z m 7.999248,3.9996242 0,1.000125 q 0,0.203 -0.14875,0.35175 -0.14875,0.14875 -0.35175,0.14875 l -1.000124,0 q -0.203,0 -0.35175,-0.14875 -0.14875,-0.14875 -0.14875,-0.35175 l 0,-1.000125 q 0,-0.203 0.14875,-0.35175 0.14875,-0.1487499 0.35175,-0.1487499 l 1.000124,0 q 0.203,0 0.35175,0.1487499 0.14875,0.14875 0.14875,0.35175 z m -3.999624,-3.9996242 0,1.0001248 q 0,0.203 -0.14875,0.3517499 -0.14875,0.1487496 -0.35175,0.1487496 l -1.000125,0 q -0.203,0 -0.35175,-0.1487496 -0.14875,-0.1487499 -0.14875,-0.3517499 l 0,-1.0001248 q 0,-0.203 0.14875,-0.35175 0.14875,-0.1487499 0.35175,-0.1487499 l 1.000125,0 q 0.203,0 0.35175,0.1487499 0.14875,0.14875 0.14875,0.35175 z m 3.999624,0 0,1.0001248 q 0,0.203 -0.14875,0.3517499 -0.14875,0.1487496 -0.35175,0.1487496 l -1.000124,0 q -0.203,0 -0.35175,-0.1487496 -0.14875,-0.1487499 -0.14875,-0.3517499 l 0,-1.0001248 q 0,-0.203 0.14875,-0.35175 0.14875,-0.1487499 0.35175,-0.1487499 l 1.000124,0 q 0.203,0 0.35175,0.1487499 0.14875,0.14875 0.14875,0.35175 z m -3.999624,21.4996212 5.999874,0 0,-24.0003708 -17.9996217,0 0,24.0003708 5.9998737,0 0,-3.5 q 0,-0.203 0.14875,-0.35175 0.14875,-0.14875 0.35175,-0.14875 l 4.999749,0 q 0.203,0 0.35175,0.14875 0.14875,0.14875 0.14875,0.35175 l 0,3.5 z m 8.000124,-24.9996206 0,25.9997456 q 0,0.405999 -0.296625,0.703499 -0.296625,0.2975 -0.7035,0.296625 l -19.9998715,0 q -0.406,0 -0.7034999,-0.296625 Q 5,29.406747 5,28.999873 L 5,3.0001274 Q 5,2.5941275 5.2966246,2.2966275 5.5932495,1.9991276 6.0001245,2.0000026 l 19.9998715,0 q 0.406,0 0.7035,0.2966249 0.2975,0.296625 0.296625,0.7034999 z"
     inkscape:connector-curvature="0" />
</svg>
