<?xml version="1.0" encoding="UTF-8" standalone="no"?>
<!-- Generated by IcoMoon.io -->

<svg
   xmlns:dc="http://purl.org/dc/elements/1.1/"
   xmlns:cc="http://creativecommons.org/ns#"
   xmlns:rdf="http://www.w3.org/1999/02/22-rdf-syntax-ns#"
   xmlns:svg="http://www.w3.org/2000/svg"
   xmlns="http://www.w3.org/2000/svg"
   xmlns:sodipodi="http://sodipodi.sourceforge.net/DTD/sodipodi-0.dtd"
   xmlns:inkscape="http://www.inkscape.org/namespaces/inkscape"
   version="1.1"
   width="32"
   height="32"
   viewBox="0 0 32 32"
   id="svg2"
   inkscape:version="0.91 r13725"
   sodipodi:docname="file-text.svg">
  <metadata
     id="metadata16">
    <rdf:RDF>
      <cc:Work
         rdf:about="">
        <dc:format>image/svg+xml</dc:format>
        <dc:type
           rdf:resource="http://purl.org/dc/dcmitype/StillImage" />
      </cc:Work>
    </rdf:RDF>
  </metadata>
  <defs
     id="defs14" />
  <sodipodi:namedview
     pagecolor="#ffffff"
     bordercolor="#666666"
     borderopacity="1"
     objecttolerance="10"
     gridtolerance="10"
     guidetolerance="10"
     inkscape:pageopacity="0"
     inkscape:pageshadow="2"
     inkscape:window-width="640"
     inkscape:window-height="480"
     id="namedview12"
     showgrid="false"
     inkscape:zoom="7.90625"
     inkscape:cx="-16"
     inkscape:cy="16"
     inkscape:current-layer="svg2" />
  <path
     id="path10"
     style="fill:#444444"
     d="m 22.125,17.75 -12.25,0 C 9.392,17.75 9,17.358 9,16.875 9,16.392 9.392,16 9.875,16 l 12.25,0 c 0.483,0 0.875,0.392 0.875,0.875 0,0.483 -0.392,0.875 -0.875,0.875 z m 0,3.5 -12.25,0 C 9.392,21.25 9,20.858 9,20.375 9,19.892 9.392,19.5 9.875,19.5 l 12.25,0 c 0.483,0 0.875,0.392 0.875,0.875 0,0.483 -0.392,0.875 -0.875,0.875 z m 0,3.5 -12.25,0 C 9.392,24.75 9,24.358 9,23.875 9,23.392 9.392,23 9.875,23 l 12.25,0 C 22.608,23 23,23.392 23,23.875 23,24.358 22.608,24.75 22.125,24.75 Z M 27.095875,8.264125 C 26.488625,7.4355 25.641625,6.46775 24.712375,5.537625 23.783125,4.6075 22.8145,3.761375 21.985875,3.154125 20.575375,2.119875 19.892,2 19.5,2 L 5.9375,2 C 4.73175,2 3.75,2.980875 3.75,4.1875 l 0,23.625 C 3.75,29.01825 4.73175,30 5.9375,30 l 20.125,0 c 1.20575,0 2.1875,-0.98175 2.1875,-2.1875 l 0,-17.0625 c 0,-0.392 -0.119875,-1.07625 -1.154125,-2.485875 z m -3.62075,-1.48925 C 24.31425,7.614 24.973125,8.37175 25.459625,9 L 21.25,9 l 0,-4.209625 c 0.62825,0.4865 1.386,1.145375 2.225125,1.9845 z M 26.5,27.8125 c 0,0.237125 -0.200375,0.4375 -0.4375,0.4375 l -20.125,0 C 5.700375,28.25 5.5,28.049625 5.5,27.8125 l 0,-23.625 C 5.5,3.950375 5.700375,3.75 5.9375,3.75 c 0,0 13.561625,0 13.5625,0 l 0,6.125 c 0,0.483 0.392,0.875 0.875,0.875 l 6.125,0 0,17.0625 z" />
</svg>
