<?xml version="1.0" encoding="UTF-8" standalone="no"?>
<!-- Generated by IcoMoon.io -->

<svg
   xmlns:dc="http://purl.org/dc/elements/1.1/"
   xmlns:cc="http://creativecommons.org/ns#"
   xmlns:rdf="http://www.w3.org/1999/02/22-rdf-syntax-ns#"
   xmlns:svg="http://www.w3.org/2000/svg"
   xmlns="http://www.w3.org/2000/svg"
   xmlns:sodipodi="http://sodipodi.sourceforge.net/DTD/sodipodi-0.dtd"
   xmlns:inkscape="http://www.inkscape.org/namespaces/inkscape"
   version="1.1"
   width="32"
   height="32"
   viewBox="0 0 32 32"
   id="svg2"
   inkscape:version="0.91 r13725"
   sodipodi:docname="food.svg">
  <metadata
     id="metadata10">
    <rdf:RDF>
      <cc:Work
         rdf:about="">
        <dc:format>image/svg+xml</dc:format>
        <dc:type
           rdf:resource="http://purl.org/dc/dcmitype/StillImage" />
      </cc:Work>
    </rdf:RDF>
  </metadata>
  <defs
     id="defs8" />
  <sodipodi:namedview
     pagecolor="#ffffff"
     bordercolor="#666666"
     borderopacity="1"
     objecttolerance="10"
     gridtolerance="10"
     guidetolerance="10"
     inkscape:pageopacity="0"
     inkscape:pageshadow="2"
     inkscape:window-width="640"
     inkscape:window-height="480"
     id="namedview6"
     showgrid="false"
     inkscape:zoom="22.362252"
     inkscape:cx="17.18159"
     inkscape:cy="15.78865"
     inkscape:current-layer="svg2" />
  <path
     d="m 27.812173,20.375122 -2.354595,0 C 25.418203,20.166 25.370079,19.961252 25.31758,19.75738 l 4.199071,-2.099099 c 0.432245,-0.216122 0.606368,-0.74199 0.39112,-1.174235 -0.216997,-0.432244 -0.74024,-0.605492 -1.174235,-0.39112 l -4.005699,2.001975 c -1.527731,-3.296958 -4.860563,-5.594679 -8.728014,-5.594679 -4.709191,0 -8.631766,3.401957 -9.4577555,7.8749 l -2.3545952,0 C 2.9817376,20.375122 2,21.355984 2,22.562594 c 0,0.428745 0.157498,0.842615 0.4418694,1.16286 l 3.0580863,3.440457 0,0.646617 C 5.4999557,29.019137 6.4816932,30 7.687428,30 l 16.624789,0 c 1.20661,0 2.187473,-0.980863 2.187473,-2.187472 l 0,-0.646617 3.057211,-3.440457 c 0.285246,-0.320245 0.442744,-0.734115 0.442744,-1.16286 0,-1.20661 -0.980862,-2.187472 -2.187472,-2.187472 z m -3.238334,0 -0.491744,0 0.435745,-0.218747 c 0.01663,0.0735 0.04025,0.144373 0.056,0.218747 z m -8.574016,-6.999911 c 3.52533,0 6.562417,2.099973 7.946649,5.11081 l -0.779615,0.38937 C 21.927873,16.1498 19.189157,14.2502 15.999823,14.2502 c -3.746703,0 -6.8765382,2.618841 -7.6736531,6.124922 l -0.8994886,0 C 8.239546,16.386047 11.774501,13.375211 15.999823,13.375211 Z m 4.003949,6.999911 c -0.676366,-1.542606 -2.214597,-2.624967 -4.003949,-2.624967 -1.789353,0 -3.326708,1.082361 -4.00395,2.624967 l -0.939738,0 c 0.722741,-2.035224 2.662592,-3.499956 4.943688,-3.499956 2.156847,0 4.014449,1.308984 4.819439,3.173585 l -0.81549,0.326371 z m -4.003949,-0.874989 c -0.772616,0 -1.461232,0.342121 -1.942476,0.874989 l -1.070986,0 c 0.607242,-1.040362 1.723728,-1.749978 3.013462,-1.749978 1.288858,0 2.406219,0.709616 3.012587,1.749978 l -1.071862,0 c -0.479494,-0.532868 -1.16811,-0.874989 -1.940725,-0.874989 z m 0,-3.499956 c -2.76934,0 -5.111686,1.847977 -5.866801,4.374945 l -0.9029886,0 c 0.7804896,-3.013462 3.5148306,-5.249934 6.7697896,-5.249934 2.840214,0 5.287558,1.704479 6.383044,4.142198 l -0.781365,0.390245 c -0.951988,-2.149848 -3.103586,-3.657454 -5.601679,-3.657454 z m 8.749889,10.499867 0,1.312484 c 0,0.241497 -0.196873,0.437494 -0.437495,0.437494 l -16.624789,0 c -0.241497,0 -0.4374945,-0.195997 -0.4374945,-0.437494 l 0,-1.312484 -3.4999557,-3.93745 c 0,-0.241497 0.1959976,-0.437494 0.4374945,-0.437494 l 23.6247007,0 c 0.240622,0 0.437494,0.195997 0.437494,0.437494 l -3.499955,3.93745 z M 8.9797866,12.248225 c -0.00612,-0.01225 -0.0105,-0.02362 -0.01575,-0.03675 C 8.5099173,11.115114 8.9614066,10.039753 9.3691565,9.06939 9.7550266,8.148902 10.097147,7.3334121 9.7436517,6.5380472 c -0.00175,-0.0035 -0.00263,-0.007 -0.00437,-0.0105 -8.75e-4,-0.00262 -0.00175,-0.00525 -0.00263,-0.00787 -8.75e-4,-0.00175 -8.75e-4,-0.0035 -8.75e-4,-0.00525 -0.0175,-0.046374 -0.028,-0.095374 -0.028,-0.1478731 0,-0.236247 0.1916225,-0.4287446 0.4287443,-0.4287446 0.181998,0 0.336871,0.1137486 0.398995,0.2738715 0.488244,1.1121109 0.04462,2.205847 -0.369245,3.191085 -0.3832453,0.911738 -0.6947413,1.758728 -0.3666205,2.530468 0.00175,0.0061 0.00175,0.01137 0,0.0175 0.00962,0.035 0.01575,0.07175 0.01575,0.109373 0,0.242372 -0.1968725,0.44012 -0.4392444,0.44012 -0.1697479,0 -0.314996,-0.09625 -0.3876201,-0.236247 -8.75e-4,0 -0.00175,0 -0.00175,0 -0.00263,-0.0053 -0.00437,-0.0105 -0.007,-0.01575 z M 19.634527,12.120476 c -0.0053,-0.01137 -0.0096,-0.02362 -0.014,-0.035 -0.454119,-1.096361 -0.0035,-2.172598 0.40337,-3.14296 0.386745,-0.920489 0.72799,-1.7359783 0.374495,-2.5313432 0,-0.0035 -0.0018,-0.007 -0.0035,-0.0105 -0.0017,-0.0035 -0.0017,-0.00525 -0.0035,-0.00787 0,-0.00175 0,-0.0035 0,-0.00525 -0.01663,-0.046374 -0.02887,-0.095374 -0.02887,-0.1478731 0,-0.236247 0.192498,-0.4287446 0.428745,-0.4287446 0.182873,0 0.336871,0.1128736 0.39987,0.2738715 0.488244,1.1121109 0.04462,2.2058474 -0.369245,3.1910854 -0.383246,0.911738 -0.693867,1.758727 -0.367496,2.530467 0.0035,0.0061 0.0035,0.01137 0.0017,0.0175 0.0088,0.035 0.01575,0.07175 0.01575,0.109374 0,0.242372 -0.198622,0.440119 -0.440994,0.440119 -0.168873,0 -0.314121,-0.09712 -0.38762,-0.237122 l -0.0018,0 c -0.0018,-0.0053 -0.0035,-0.0105 -0.007,-0.01575 z M 15.141459,8.310775 c -0.0061,-0.01225 -0.0105,-0.02362 -0.01662,-0.03587 -0.454994,-1.0963609 -0.0035,-2.1725973 0.404245,-3.14296 0.38587,-0.9204883 0.72799,-1.735978 0.374495,-2.5313429 -8.75e-4,-0.0035 -0.0026,-0.007 -0.0035,-0.0105 -8.75e-4,-0.00263 -0.0017,-0.00525 -0.0026,-0.00787 -8.75e-4,-0.00175 -8.75e-4,-0.0035 -8.75e-4,-0.00525 -0.0175,-0.046374 -0.028,-0.095374 -0.028,-0.1478732 0,-0.236247 0.192498,-0.4287445 0.428745,-0.4287445 0.182873,0 0.336871,0.1137485 0.39987,0.2747465 0.488244,1.1121109 0.04462,2.2058471 -0.369245,3.1910846 -0.383246,0.9117384 -0.694742,1.7587277 -0.366621,2.5304679 0.0017,0.00613 0.0017,0.011375 0,0.017499 0.0096,0.035 0.01575,0.07175 0.01575,0.109374 0,0.242372 -0.196873,0.44012 -0.439244,0.44012 -0.168873,0 -0.314122,-0.09712 -0.387621,-0.237122 -8.75e-4,0 -0.0017,0 -0.0017,0 -0.0026,-0.0053 -0.0044,-0.0105 -0.007,-0.01575 z"
     id="path4"
     inkscape:connector-curvature="0"
     style="fill:#444444" />
</svg>
