<svg xmlns="http://www.w3.org/2000/svg" width="28" height="28" viewBox="0 0 28 28">
    <path d="M14 1q2.641 0 5.05 1.023 2.407 1.03 4.15 2.772 1.741 1.741 2.77 4.15Q27 11.356 27 13.997t-1.03 5.05q-1.03 2.41-2.77 4.152-1.741 1.742-4.15 2.772Q16.64 27 14 27q-2.639 0-5.048-1.03-2.41-1.03-4.15-2.772-1.74-1.742-2.771-4.151Q1 16.637 1 13.997q0-2.642 1.03-5.051 1.03-2.41 2.772-4.151 1.742-1.742 4.15-2.772Q11.36 1 14 1zm0 1.85q-2.757 0-5.238 1.306l2.815 2.816q1.19-.407 2.423-.407t2.422.407l2.815-2.816Q16.756 2.85 13.999 2.85zM4.163 19.237l2.814-2.815q-.406-1.19-.406-2.424 0-1.233.406-2.423L4.163 8.759Q2.857 11.241 2.857 14t1.306 5.24zM14 25.144q2.757 0 5.239-1.306l-2.815-2.815q-1.19.406-2.423.406t-2.422-.406l-2.815 2.815q2.481 1.306 5.238 1.306zm0-5.573q2.307 0 3.94-1.633 1.632-1.633 1.632-3.94 0-2.308-1.632-3.941Q16.307 8.424 14 8.424q-2.306 0-3.939 1.633-1.632 1.633-1.632 3.94 0 2.308 1.632 3.94 1.633 1.634 3.94 1.634zm7.023-3.15l2.814 2.815q1.306-2.482 1.306-5.24t-1.306-5.24l-2.814 2.816q.406 1.19.406 2.423 0 1.234-.406 2.424z" fill="#444"/>
</svg>
