<?xml version="1.0" encoding="UTF-8" standalone="no"?>
<!-- Generated by IcoMoon.io -->

<svg
   xmlns:dc="http://purl.org/dc/elements/1.1/"
   xmlns:cc="http://creativecommons.org/ns#"
   xmlns:rdf="http://www.w3.org/1999/02/22-rdf-syntax-ns#"
   xmlns:svg="http://www.w3.org/2000/svg"
   xmlns="http://www.w3.org/2000/svg"
   xmlns:sodipodi="http://sodipodi.sourceforge.net/DTD/sodipodi-0.dtd"
   xmlns:inkscape="http://www.inkscape.org/namespaces/inkscape"
   version="1.1"
   width="24"
   height="24"
   viewBox="0 0 24 24"
   id="svg2"
   inkscape:version="0.91 r13725"
   sodipodi:docname="location.svg">
  <metadata
     id="metadata10">
    <rdf:RDF>
      <cc:Work
         rdf:about="">
        <dc:format>image/svg+xml</dc:format>
        <dc:type
           rdf:resource="http://purl.org/dc/dcmitype/StillImage" />
        <dc:title></dc:title>
      </cc:Work>
    </rdf:RDF>
  </metadata>
  <defs
     id="defs8" />
  <sodipodi:namedview
     pagecolor="#ffffff"
     bordercolor="#666666"
     borderopacity="1"
     objecttolerance="10"
     gridtolerance="10"
     guidetolerance="10"
     inkscape:pageopacity="0"
     inkscape:pageshadow="2"
     inkscape:window-width="1855"
     inkscape:window-height="1056"
     id="namedview6"
     showgrid="false"
     fit-margin-top="2.25"
     fit-margin-left="2"
     fit-margin-bottom="2.25"
     fit-margin-right="2"
     inkscape:zoom="11.8"
     inkscape:cx="10"
     inkscape:cy="10.25"
     inkscape:window-x="65"
     inkscape:window-y="24"
     inkscape:window-maximized="1"
     inkscape:current-layer="svg2" />
  <path
     d="M 15.75,15.635806 17.2125,8.1629032 C 18.2,7.6219355 18.875,6.5903226 18.875,5.3951613 18.875,3.6590323 17.475,2.25 15.75,2.25 c -1.725,0 -3.125,1.4090323 -3.125,3.1451613 0,1.1951613 0.675,2.2267742 1.6625,2.7677419 z m 0,-12.1277415 c 1.0375,0 1.875,0.8429032 1.875,1.8870968 0,1.0441935 -0.8375,1.8870968 -1.875,1.8870968 -1.0375,0 -1.875,-0.8429033 -1.875,-1.8870968 0,-1.0441936 0.8375,-1.8870968 1.875,-1.8870968 z M 17.9,9.5467742 22,7.8735484 22,19.196129 15.9,21.75 8.25,19.196129 2,21.712258 2,10.389677 8.25,7.8735484 13.5875,9.6474194 15.75,18.83129 Z"
     id="path4"
     inkscape:connector-curvature="0" />
</svg>
