<svg xmlns="http://www.w3.org/2000/svg" width="24" height="24" viewBox="0 0 24 24">
    <path d="M17.258 15.287q.75-.752.75-1.784 0-1.033-.727-1.76-.728-.729-1.761-.729-1.08 0-1.784.704l-.751.751-.704-.75q-.704-.705-1.784-.705-1.032 0-1.76.728-.729.728-.729 1.76 0 1.08.704 1.785l4.273 4.272zM5.473 6.977q.61 0 1.057-.446.447-.446.446-1.057-.001-.61-.446-1.056-.445-.446-1.057-.446-.612 0-1.056.446-.445.445-.446 1.056 0 .611.446 1.057.446.446 1.056.446zm15.963 4.6q.564.565.564 1.409 0 .844-.564 1.408l-7.042 7.042Q13.83 22 12.986 22t-1.408-.564l-9.014-9.014Q2 11.858 2 11.014V3.972q0-.798.587-1.385T3.972 2h7.042q.845 0 1.408.564z" fill="#444"/>
</svg>
