<svg xmlns="http://www.w3.org/2000/svg" width="32" height="32" viewBox="0 0 32 32">
    <path d="M28.66 16l1.34-.97-3.644-5.636A.875.875 0 0 0 25.625 9h-7a.875.875 0 0 0-.73.394L14.25 15.03l1.34.97 3.025-3.926 1.052 2.453L16 21.25h3.354l.583 8.75h1.75v-8.75h.875V30h1.75l.584-8.75h3.354l-3.667-6.723 1.052-2.453L28.66 16zM9 9H3.75A1.75 1.75 0 0 0 2 10.75v8.75h1.75V30h2.188V19.5h.875V30H9V19.5h1.75v-8.75A1.75 1.75 0 0 0 9 9zm15.75-4.375a2.625 2.625 0 1 1-5.25 0 2.625 2.625 0 0 1 5.25 0zM9 4.625a2.625 2.625 0 1 1-5.25 0 2.625 2.625 0 0 1 5.25 0z"/>
</svg>
