<?xml version="1.0" encoding="UTF-8" standalone="no"?>
<!-- Generated by IcoMoon.io -->

<svg
   xmlns:dc="http://purl.org/dc/elements/1.1/"
   xmlns:cc="http://creativecommons.org/ns#"
   xmlns:rdf="http://www.w3.org/1999/02/22-rdf-syntax-ns#"
   xmlns:svg="http://www.w3.org/2000/svg"
   xmlns="http://www.w3.org/2000/svg"
   xmlns:sodipodi="http://sodipodi.sourceforge.net/DTD/sodipodi-0.dtd"
   xmlns:inkscape="http://www.inkscape.org/namespaces/inkscape"
   version="1.1"
   width="32"
   height="32"
   viewBox="0 0 32 32"
   id="svg2"
   inkscape:version="0.91 r13725"
   sodipodi:docname="office.svg">
  <metadata
     id="metadata10">
    <rdf:RDF>
      <cc:Work
         rdf:about="">
        <dc:format>image/svg+xml</dc:format>
        <dc:type
           rdf:resource="http://purl.org/dc/dcmitype/StillImage" />
        <dc:title></dc:title>
      </cc:Work>
    </rdf:RDF>
  </metadata>
  <defs
     id="defs8" />
  <sodipodi:namedview
     pagecolor="#ffffff"
     bordercolor="#666666"
     borderopacity="1"
     objecttolerance="10"
     gridtolerance="10"
     guidetolerance="10"
     inkscape:pageopacity="0"
     inkscape:pageshadow="2"
     inkscape:window-width="640"
     inkscape:window-height="480"
     id="namedview6"
     showgrid="false"
     fit-margin-top="2"
     fit-margin-left="2"
     fit-margin-bottom="2"
     fit-margin-right="2"
     inkscape:zoom="8.2424967"
     inkscape:cx="5.4890641"
     inkscape:cy="22.167458"
     inkscape:current-layer="svg2" />
  <path
     id="path4"
     d="M 2,30 16,30 16,2 2,2 2,30 Z m 8.75,-24.5 3.5,0 0,3.5 -3.5,0 0,-3.5 z m 0,7 3.5,0 0,3.5 -3.5,0 0,-3.5 z m 0,7 3.5,0 0,3.5 -3.5,0 0,-3.5 z m -7,-14 3.5,0 0,3.5 -3.5,0 0,-3.5 z m 0,7 3.5,0 0,3.5 -3.5,0 0,-3.5 z m 0,7 3.5,0 0,3.5 -3.5,0 0,-3.5 z m 14,-8.75 12.25,0 0,1.75 -12.25,0 z m 0,19.25 3.5,0 0,-7 5.25,0 0,7 3.5,0 0,-15.75 -12.25,0 z" />
</svg>
