<?xml version="1.0" encoding="UTF-8" standalone="no"?>
<svg
   xmlns:dc="http://purl.org/dc/elements/1.1/"
   xmlns:cc="http://creativecommons.org/ns#"
   xmlns:rdf="http://www.w3.org/1999/02/22-rdf-syntax-ns#"
   xmlns:svg="http://www.w3.org/2000/svg"
   xmlns="http://www.w3.org/2000/svg"
   xmlns:sodipodi="http://sodipodi.sourceforge.net/DTD/sodipodi-0.dtd"
   xmlns:inkscape="http://www.inkscape.org/namespaces/inkscape"
   version="1.1"
   x="0px"
   y="0px"
   viewBox="0 0 32 32"
   enable-background="new 0 0 100 100"
   xml:space="preserve"
   id="svg2"
   inkscape:version="0.91 r13725"
   sodipodi:docname="pulpit.svg"
   width="32"
   height="32"><metadata
     id="metadata22"><rdf:RDF><cc:Work
         rdf:about=""><dc:format>image/svg+xml</dc:format><dc:type
           rdf:resource="http://purl.org/dc/dcmitype/StillImage" /><dc:title></dc:title></cc:Work></rdf:RDF></metadata><defs
     id="defs20" /><sodipodi:namedview
     pagecolor="#ffffff"
     bordercolor="#666666"
     borderopacity="1"
     objecttolerance="10"
     gridtolerance="10"
     guidetolerance="10"
     inkscape:pageopacity="0"
     inkscape:pageshadow="2"
     inkscape:window-width="640"
     inkscape:window-height="480"
     id="namedview18"
     showgrid="false"
     fit-margin-top="2"
     fit-margin-left="2"
     fit-margin-bottom="2"
     fit-margin-right="2"
     inkscape:zoom="11.93641"
     inkscape:cx="34.47801"
     inkscape:cy="24.563877"
     inkscape:current-layer="g6" /><g
     id="g4"
     transform="translate(-3.1,-63.201454)"><g
       id="g6"><path
         id="rect12"
         d="m 9.1534521,82.06591 19.8619159,0 0,6.053078 -19.8619159,0 z m -2.556793,8.804477 25.0378629,0 0,0.841604 -25.0378629,0 z m 26.1603569,-1.488993 -1.839644,0 0,0 0,-8.545521 c 0,0 0.849466,0.08504 1.091314,-0.194216 l 0,5.081995 c 0.01425,0.234071 0.371739,0.23444 0.374165,0 l 0,-5.34095 c 0,-0.356064 -0.280624,-1.488993 -0.77951,-1.488993 l 0,0 -3.398664,0 0,-4.208022 c 0,-5.243842 -4.115813,-9.484233 -9.135857,-9.484233 -5.051225,0 -9.1358579,4.240391 -9.1358579,9.484233 l 0,4.240392 -3.3051225,0 0,0 c -0.4988864,0 -0.77951,1.100559 -0.77951,1.488992 l 0,5.34095 c 0.00964,0.238865 0.3625033,0.248822 0.3741648,0 l 0,-5.081995 c 0.1448471,0.242553 1.0289533,0.161847 1.0289533,0.161847 l 0,8.513152 0,0 -1.7772829,0 C 5.2870824,89.349025 5.1,89.510872 5.1,89.737458 l 0,3.107462 c 0.00328,0.271031 0.1243994,0.364065 0.3429844,0.356064 l 27.2828506,0 c 0.187083,0 0.374165,-0.161847 0.374165,-0.388433 l 0,-3.107463 C 33.0917,89.469491 32.955498,89.379742 32.757016,89.381394 Z M 11.897327,74.847534 c 0,-4.110913 3.211582,-7.444961 7.171493,-7.444961 3.959911,0 7.171492,3.334048 7.171492,7.444961 l 0,4.078545 -0.841871,0 0,-3.884328 c 0,-3.625372 -2.837417,-6.765204 -6.329621,-6.765204 -3.492205,0 -6.329622,3.139832 -6.329622,6.765204 l 0,3.884328 -0.841871,0 z m 7.795101,-1.003451 0,-1.5861 -1.216036,0 0,1.5861 -1.55902,0 0,1.262406 1.52784,0 0,3.78722 -4.988865,0 0,-3.884328 c 0,-3.204569 2.525613,-6.020707 5.612473,-6.020707 3.086859,0 5.612472,2.783768 5.612472,6.020707 l 0,3.884328 -4.988864,0 0,-3.75485 1.527839,0 0,-1.262407 -1.527839,0 z m -11.7238311,6.99179 22.2316261,0 0,8.513152 -22.2316261,0 z m 24.4142541,11.652984 -26.5657018,0 0,-2.362967 26.5657018,0 z"
         inkscape:connector-curvature="0"
         sodipodi:nodetypes="cccccccccccccccccscccssscccsccccccssccssccsssccsssccscccccccccsssccccccccccccccccc" /></g></g></svg>