<svg xmlns="http://www.w3.org/2000/svg" width="28" height="28" viewBox="0 0 28 28">
    <path d="M8.317 23.09q0 1.421-.994 2.416-.994.994-2.414.994-1.42 0-2.415-.994Q1.5 24.51 1.5 23.09t.994-2.415q.994-.994 2.415-.994 1.42 0 2.414.994.994.994.994 2.415zm9.09 2.185q.035.498-.302.852-.32.373-.834.373h-2.396q-.445 0-.764-.293-.32-.293-.356-.737-.39-4.065-3.275-6.95-2.885-2.886-6.95-3.277-.445-.035-.737-.356-.293-.32-.293-.763v-2.397q0-.514.373-.834.302-.302.763-.302h.089q2.84.23 5.432 1.43 2.592 1.198 4.598 3.222 2.024 2.007 3.223 4.599 1.198 2.592 1.43 5.433zm9.09.035q.035.48-.32.834-.319.356-.816.356h-2.539q-.461 0-.79-.31-.328-.31-.346-.755-.212-3.817-1.793-7.253-1.58-3.437-4.11-5.966-2.529-2.53-5.965-4.11-3.436-1.581-7.252-1.812-.444-.018-.755-.346-.311-.329-.311-.773V2.636q0-.497.357-.817.32-.319.781-.319h.054q4.652.23 8.903 2.13 4.252 1.9 7.554 5.221 3.32 3.302 5.22 7.555 1.9 4.252 2.13 8.904z" fill="#444"/>
</svg>
