<?xml version="1.0" encoding="UTF-8" standalone="no"?>
<svg
   xmlns:dc="http://purl.org/dc/elements/1.1/"
   xmlns:cc="http://creativecommons.org/ns#"
   xmlns:rdf="http://www.w3.org/1999/02/22-rdf-syntax-ns#"
   xmlns:svg="http://www.w3.org/2000/svg"
   xmlns="http://www.w3.org/2000/svg"
   xmlns:sodipodi="http://sodipodi.sourceforge.net/DTD/sodipodi-0.dtd"
   xmlns:inkscape="http://www.inkscape.org/namespaces/inkscape"
   width="24"
   height="24"
   viewBox="0 0 24 24"
   id="svg2"
   version="1.1"
   inkscape:version="0.91 r13725"
   sodipodi:docname="search.svg">
  <metadata
     id="metadata10">
    <rdf:RDF>
      <cc:Work
         rdf:about="">
        <dc:format>image/svg+xml</dc:format>
        <dc:type
           rdf:resource="http://purl.org/dc/dcmitype/StillImage" />
      </cc:Work>
    </rdf:RDF>
  </metadata>
  <defs
     id="defs8" />
  <sodipodi:namedview
     pagecolor="#ffffff"
     bordercolor="#666666"
     borderopacity="1"
     objecttolerance="10"
     gridtolerance="10"
     guidetolerance="10"
     inkscape:pageopacity="0"
     inkscape:pageshadow="2"
     inkscape:window-width="640"
     inkscape:window-height="480"
     id="namedview6"
     showgrid="false"
     inkscape:zoom="10.541667"
     inkscape:cx="-12"
     inkscape:cy="12"
     inkscape:current-layer="svg2" />
  <path
     d="m 16.293882,14.578616 -0.903373,0 -0.320183,-0.308748 A 7.3996569,7.3996569 0 0 0 16.865638,9.4328188 7.4328188,7.4328188 0 1 0 9.4328186,16.865638 c 1.8410524,0 3.5334474,-0.674672 4.8370494,-1.795312 l 0.308748,0.320183 0,0.903373 L 20.296169,22 22,20.296169 16.293882,14.578616 Z m -6.8610634,0 c -2.8473416,0 -5.1457978,-2.298456 -5.1457978,-5.1457972 0,-2.8473414 2.2984562,-5.1457976 5.1457978,-5.1457976 2.8473414,0 5.1457974,2.2984562 5.1457974,5.1457976 0,2.8473412 -2.298456,5.1457972 -5.1457974,5.1457972 z"
     id="path4"
     inkscape:connector-curvature="0" />
</svg>
