<svg xmlns="http://www.w3.org/2000/svg" width="32" height="32" viewBox="0 0 32 32">
    <path d="M9.333 2C6.387 2 4 4.742 4 8.125c0 2.896 1.75 5.323 4.103 5.96L7.22 28.253c-.06.96.692 1.746 1.67 1.746h.888c.978 0 1.73-.786 1.67-1.746l-.883-14.168c2.352-.637 4.103-3.064 4.103-5.96C14.668 4.742 12.281 2 9.335 2zM27.26 2l-1.482 8.75h-1.111L23.926 2h-.74l-.741 8.75h-1.111L19.852 2h-.74v11.375c0 .483.398.875.888.875h2.315l-.873 14.004c-.06.96.692 1.746 1.67 1.746H24c.978 0 1.729-.786 1.67-1.746l-.873-14.004h2.314c.49 0 .889-.392.889-.875V2h-.74z" fill="#444"/>
</svg>
