<svg xmlns="http://www.w3.org/2000/svg" width="32" height="32" viewBox="0 0 32 32">
    <path d="M16.448 29.563V21.25c0-.241-.119-.875-.366-.875-.248 0-.53.196-.53.438v8.75c0 .241.281.437.53.437.248 0 .366-.196.366-.438zm.082-26.196v-.93c0-.241-.201-.437-.448-.437a.443.443 0 0 0-.449.438v.929c0 .241.201.437.449.437a.443.443 0 0 0 .448-.437zM6.488 5.037L3.29 7.485a.865.865 0 0 0-.29.64c0 .24.106.474.317.663L6.46 11.19c.275.248.765.435 1.141.435H20c.513 0 .932-.405.932-.904V5.53c0-.499-.419-.904-.932-.904H7.6c-.376 0-.866.187-1.113.412zm13.546 5.684c0 .013-.016.029-.035.029H7.6c-.152 0-.422-.102-.56-.226L3.87 8.15l3.197-2.448c.112-.1.38-.202.533-.202l12.433.029v5.192zm5.506 2.214A1.911 1.911 0 0 0 24.4 12.5H12c-.513 0-.932.405-.932.904v5.193c0 .498.419.903.932.903H24.4c.376 0 .866-.187 1.114-.412l3.197-2.448A.865.865 0 0 0 29 16a.884.884 0 0 0-.317-.663l-3.143-2.402zm-13.574.44h12.433c.152 0 .422.102.56.226l3.17 2.374-3.197 2.448c-.112.1-.38.202-.533.202H11.966v-5.25z" fill="#444"/>
</svg>
